<?xml version="1.0" encoding="UTF-8" standalone="no"?>
<!-- Created with Inkscape (http://www.inkscape.org/) -->

<svg
   xmlns:dc="http://purl.org/dc/elements/1.1/"
   xmlns:cc="http://creativecommons.org/ns#"
   xmlns:rdf="http://www.w3.org/1999/02/22-rdf-syntax-ns#"
   xmlns:svg="http://www.w3.org/2000/svg"
   xmlns="http://www.w3.org/2000/svg"
   xmlns:sodipodi="http://sodipodi.sourceforge.net/DTD/sodipodi-0.dtd"
   xmlns:inkscape="http://www.inkscape.org/namespaces/inkscape"
   width="210mm"
   height="297mm"
   viewBox="0 0 210 297"
   version="1.1"
   id="svg8"
   sodipodi:docname="track3.svg"
   inkscape:version="0.92.3 (d244b95, 2018-08-02)">
  <defs
     id="defs2" />
  <sodipodi:namedview
     id="base"
     pagecolor="#ffffff"
     bordercolor="#666666"
     borderopacity="1.0"
     inkscape:pageopacity="0.0"
     inkscape:pageshadow="2"
     inkscape:zoom="4"
     inkscape:cx="274.64417"
     inkscape:cy="833.73755"
     inkscape:document-units="mm"
     inkscape:current-layer="layer1"
     showgrid="false"
     inkscape:window-width="1366"
     inkscape:window-height="709"
     inkscape:window-x="0"
     inkscape:window-y="24"
     inkscape:window-maximized="1" />
  <metadata
     id="metadata5">
    <rdf:RDF>
      <cc:Work
         rdf:about="">
        <dc:format>image/svg+xml</dc:format>
        <dc:type
           rdf:resource="http://purl.org/dc/dcmitype/StillImage" />
      </cc:Work>
    </rdf:RDF>
  </metadata>
  <g
     inkscape:label="Layer 1"
     inkscape:groupmode="layer"
     id="layer1">
    <path
       sodipodi:nodetypes="zzzzzzzzzzcssssssszzsssssssssssssssssssssssssssssscc"
       inkscape:connector-curvature="0"
       id="path28"
       d="M60.402914 75.700831C60.6175094375 75.45058 60.830382957 75.2120385625 61.0421375004 74.9845229814C61.2665235606 74.7434357107 61.4896531654 74.514728952 61.7122437203 74.2975892028C61.9479534248 74.0676515662 62.1830586653 73.8506846039 62.4184113191 73.6457223293C62.6656244439 73.4304310905 62.9131105469 73.2283849663 63.161856894 73.0384644457C63.4211463758 72.8404941279 63.6818051969 72.6556990869 63.9449515556 72.482811341C64.2157744333 72.3048801049 64.4892320987 72.1395610177 64.766543493 71.9854718604C65.0474827048 71.8293668921 65.3323771349 71.6847875978 65.6224941919 71.5502967989C65.9120380252 71.4160717317 66.2067838678 71.2918953328 66.5079916306 71.1763389254C66.8033733244 71.0630176517 67.1049693786 70.9579861325 67.413968 70.859897C67.7140996372 70.7646224885 68.0212150901 70.6758976528 68.3364031833 70.592487813C68.6397947084 70.5121997595 68.9506659112 70.4368362975 69.2699878801 70.3652962547C69.5752397247 70.296908445 69.888214019 70.2320145389 70.2097590585 70.1696526057C70.5169494088 70.1100746873 70.8319623407 70.052807719 71.1555375354 69.9970129342C71.4636291514 69.9438880171 71.7794832005 69.8920977619 72.1037381792 69.8409181412C72.4124073864 69.7921985409 72.7286893276 69.7440322839 73.0531347831 69.695794809C73.3619788363 69.6498768988 73.6782201729 69.6038944553 74.0023338777 69.5573087528C74.3122087375 69.5127696363 74.6292794672 69.4676791009 74.9539612481 69.4215663485C75.2637721078 69.3775656307 75.5805127895 69.3326341897 75.904544 69.286363C76.2236211318 69.240799252 76.5526652265 69.1984244492 76.8908977268 69.1593103364C77.2129220759 69.1220705776 77.543275311 69.0877864909 77.8812855226 69.0565199933C78.2050585979 69.026570454 78.5358572039 68.9993896531 78.8730908089 68.9750320084C79.1985875832 68.9515220893 79.530079233 68.930642236 79.8670347627 68.9124413801C80.1933489179 68.8948153244 80.5247872934 68.8797017275 80.8608676297 68.8671450299C81.1881037706 68.8549187708 81.5197407738 68.8451166085 81.8553334596 68.8377795666C82.1835115091 68.8306046304 82.5154723773 68.8257870885 82.850799745 68.8233653049C83.1795964269 68.8209906869 83.5116297563 68.8209194186 83.8465072674 68.8231876659C84.1757338714 68.8254176376 84.5077094784 68.8299088345 84.8420611574 68.8366956226C85.1712290894 68.8433771892 85.502699988 68.8522837176 85.836118 68.863448C86.1658997449 68.8744905322 86.4975863706 68.8877418481 86.8308335371 68.9032336787C87.1606923562 68.9185679934 87.4920801433 68.9360974928 87.8246629551 68.9558529499C88.1548601225 68.9754666994 88.4862352322 68.9972745872 88.8184614757 69.0213067286C89.1486199653 69.0451892956 89.479619027 69.0712685153 89.8111379165 69.0995739443C90.1409384041 69.1277326543 90.4712533445 69.1580945547 90.8017669556 69.1906887449C91.1316031335 69.2232161289 91.4616371685 69.2579666613 91.7915552158 69.2949692629C92.1207871418 69.3318949113 92.4499035621 69.3710632716 92.7785925862 69.4125030846C93.1077095908 69.4539968557 93.4363980855 69.4977679986 93.7643449597 69.5438453665C94.0935766442 69.5901032536 94.4220608859 69.6386854714 94.7494808799 69.6896212137C95.0781823611 69.7407563131 95.4058112476 69.794263396 95.732047 69.850172C96.0598689971 69.9063524341 96.3862842936 69.9649577941 96.7109676504 70.0260180526C97.0385761343 70.0876284133 97.3644213313 70.1517381049 97.6881691324 70.2183779172C98.0149921406 70.2856507261 98.3396777184 70.3555019501 98.6618821451 70.4279632649C98.9875179089 70.5011962612 99.3106193939 70.577095237 99.6308317808 70.6556928907C99.9553613298 70.7353502124 100.276923353 70.8177794707 100.595148485 70.9030147046C100.918120436 70.9895213534 101.237655204 71.0789183131 101.553366647 71.1712411685C101.874854141 71.2652531025 102.192377132 71.3622989721 102.505527895 71.4624163515C102.824651844 71.5644434169 103.139235177 71.6696602843 103.448846391 71.7781067192C103.765609858 71.8890583486 104.077168833 72.0033904799 104.38306121 72.1211456983C104.696207952 72.2416935307 105.003416138 72.3658287354 105.30419 72.493597C105.593744993 72.6165995425 105.881856423 72.7425572718 106.168430728 72.8713849142C106.455116572 73.0002626987 106.740264094 73.1320126308 107.023779621 73.2665493374C107.307970668 73.4014065989 107.590521934 73.5390639306 107.871339075 73.6794353475C108.153121714 73.8202893857 108.433158283 73.9638762041 108.711353461 74.1101089279C108.990065944 74.2566135717 109.266930181 74.4057739702 109.541850321 74.557502763C109.817342046 74.7095470143 110.09088158 74.8641703508 110.362372472 75.0212848661C110.634928042 75.1790155214 110.905418871 75.3392569327 111.173747366 75.5019201553C111.443127103 75.6652206498 111.71032753 75.8309619689 111.975249905 75.9990541182C112.241209158 76.1678041624 112.504872492 76.3389234746 112.76614 76.512321C113.02871019 76.6865844502 113.288860594 76.8631489251 113.546489774 77.0419220041C113.805490932 77.2216471219 114.061943941 77.40360443 114.315745733 77.5877000234C114.5710976 77.7729199663 114.823765766 77.9603043932 115.073645265 78.149757668C115.324951638 78.3402927682 115.573437405 78.5329204111 115.818995789 78.727543313C116.066078533 78.9233743816 116.310197437 79.1212255582 116.551243724 79.3209977361C116.794341993 79.5224705375 117.034315109 79.7258971857 117.271051493 79.9311760214C117.509534579 80.1379694573 117.744732995 80.3466425134 117.976532673 80.5570912636C118.210325851 80.7693498934 118.440661581 80.9834148909 118.667422828 81.1991796255C118.895962595 81.4166366326 119.120871589 81.6358201438 119.34203 81.856621C119.56581125 82.0800395591 119.785752454 82.3051140174 120.001729527 82.5317312864C120.219737509 82.7604795173 120.433706458 82.9907997103 120.643508757 83.2225755566C120.855729745 83.4570234121 121.063687459 83.6929606771 121.267249817 83.9302669733C121.473083623 84.1702212481 121.674423435 84.4115752773 121.871132699 84.6542046078C122.070148314 84.8996786868 122.264424163 85.1464581474 122.453818832 85.3944141077C122.645896288 85.64588238 122.832953301 85.8985607183 123.014842362 86.1523146859C123.199130971 86.4094162685 123.378114374 86.6676220478 123.551639148 86.9267921958C123.727907525 87.190060086 123.898543296 87.4543230813 124.063385645 87.7194346159C124.230823936 87.9887211352 124.392284899 88.2588831299 124.5476 88.529767C124.7079346 88.8094063584 124.864096645 89.0880433456 125.015985513 89.3658016073C125.170394373 89.6481681629 125.320387088 89.9296265933 125.465857942 90.210306801C125.613896328 90.4959409581 125.757251825 90.7807691791 125.895813023 91.064928367C126.036935612 91.3543404187 126.173085013 91.6430584737 126.30414352 91.9312271684C126.43728258 92.2239705412 126.565167828 92.516146973 126.687675863 92.8079080986C126.812120875 93.1042822628 126.931017291 93.4002278842 127.044235767 93.6959039041C127.159237211 93.9962362393 127.268380473 94.2962904148 127.37153 94.596233C127.475958411 94.899894322 127.574243428 95.2034412774 127.666244499 95.5070467072C127.759323315 95.8142087196 127.845970096 96.1214305846 127.926039291 96.428891289C128.006827881 96.7391144248 128.08092016 97.0495807111 128.148166618 97.3604740026C128.215817667 97.6732377952 128.276540271 97.9864337466 128.330182207 98.3002490503C128.383990369 98.6150368106 128.430673912 98.9304477675 128.470079191 99.2466708601C128.50953253 99.5632796282 128.541689841 99.880702514 128.566396918 100.199129149C128.591007671 100.516314354 128.608226168 100.834495497 128.6179 101.15386C128.627535498 101.471800161 128.629691166 101.790913364 128.624216981 102.111384477C128.618794283 102.428841426 128.605884582 102.747630862 128.585342047 103.067932487C128.565059685 103.384177476 128.537336606 103.701896593 128.502032452 104.021262798C128.467236666 104.336030228 128.425076564 104.652397653 128.375417763 104.970530669C128.326640474 105.283016382 128.270628348 105.597205559 128.207254034 105.913255132C128.145114835 106.223145146 128.075897618 106.534823748 127.999482332 106.848438871C127.924837285 107.154788779 127.843323807 107.462986525 127.75483 107.77317C127.664222656 108.090763203 127.554826961 108.402362972 127.428300422 108.708501218C127.302845957 109.012045519 127.160549722 109.310220456 127.003027448 109.603544534C126.848376014 109.891522786 126.679048471 110.174825381 126.496573812 110.453942987C126.31776607 110.727451589 126.126334297 110.99694171 125.923717148 111.262875028C125.725996776 111.522381366 125.517625143 111.778500743 125.299939096 112.031662166C125.086968549 112.279339623 124.865082754 112.524185889 124.63553355 112.766602691C124.410403313 113.004352816 124.177901878 113.239766115 123.939210172 113.473221557C123.705135327 113.70216142 123.465107364 113.929218434 123.22024 114.15475C122.978997666 114.376942 122.733058203 114.597653446 122.483486616 114.817226101C122.236811395 115.034250538 121.986587866 115.250162464 121.733844384 115.465291879C121.483039483 115.678771218 121.229753138 115.891480004 120.974990223 116.103740704C120.721816083 116.314677683 120.467183732 116.525172146 120.212079361 116.735540565C119.957226556 116.945701531 119.701902662 117.155736701 119.447090952 117.365961609C119.192032359 117.576390202 118.937486943 117.787008901 118.684440843 117.998134159C118.429780838 118.210605954 118.176639335 118.423590791 117.926021458 118.637411217C117.67343795 118.852908665 117.42341781 119.069254861 117.17699 119.28678C116.927598931 119.506918857 116.681887048 119.728265147 116.440920854 119.9511611C116.196593632 120.177166033 115.957145409 120.404764162 115.723687938 120.634312238C115.485933764 120.868085067 115.254392886 121.10388028 115.030239579 121.342074693C114.801526933 121.585114045 114.580505445 121.830651189 114.368422513 122.079086407C114.151436515 122.333265105 113.943807144 122.590477423 113.746870328 122.85115205C113.545274377 123.117993721 113.354882894 123.388463462 113.177128883 123.663021111C112.995762171 123.943158914 112.827551844 124.227552481 112.674020066 124.516690263C112.518070465 124.810381396 112.37726537 125.108967344 112.2532 125.41296C112.13102842 125.712312559 112.012539909 126.012631129 111.897879155 126.313762214C111.782810194 126.615965367 111.671596295 126.91898683 111.5643837 127.222671462C111.456739413 127.527578883 111.353128717 127.833154823 111.253699628 128.13924226C111.153843664 128.446643809 111.05820529 128.754561256 110.966934435 129.062835545C110.875095564 129.373028355 110.787678744 129.683582463 110.704836722 129.994335826C110.621466341 130.307071145 110.542729299 130.620008269 110.468781285 130.932982035C110.394253286 131.248410497 110.324589731 131.563876179 110.25995 131.87921C110.194878018 132.196647656 110.134897145 132.513951726 110.080169887 132.830949792C110.025018249 133.150406004 109.975202019 133.469551449 109.930887511 133.788209666C109.886297911 134.108846028 109.84727855 134.428989094 109.813998861 134.748459099C109.780435867 135.070648693 109.752710682 135.392153718 109.730997099 135.712789777C109.709090998 136.036268679 109.693303572 136.358863138 109.683813281 136.68038381C109.674262462 137.00395511 109.671089358 137.326438882 109.674475864 137.647642135C109.677888931 137.97136463 109.687964907 138.29378644 109.70489 138.61471C109.721953418 138.938217842 109.745976813 139.260203139 109.777151011 139.58046346C109.808512163 139.902644406 109.847110144 140.223079624 109.893139231 140.54156302C109.939449043 140.86198879 109.993280881 141.180438858 110.054832601 141.496703335C110.116565237 141.813897395 110.186063205 142.128892996 110.263526109 142.441478394C110.341115289 142.754573354 110.426695395 143.065250245 110.52046701 143.373296286C110.614376121 143.681794007 110.71650078 143.987653157 110.827042456 144.290660016C110.937584132 144.593666875 111.056542824 144.893821443 111.18412 145.19091C111.311731514 145.488076797 111.455586723 145.774658712 111.614097237 146.051553465C111.773543877 146.330083494 111.947819435 146.598811602 112.135307212 146.858651509C112.322276741 147.117773175 112.522385547 147.368055708 112.734030302 147.610405271C112.943801688 147.850609683 113.164905706 148.08302094 113.395781226 148.308521356C113.623662087 148.531096833 113.861062605 148.746939585 114.106481611 148.956898034C114.348366894 149.163833348 114.598041417 149.365052592 114.854067927 149.561368065C115.106968066 149.755286306 115.36606601 149.944419807 115.629976518 150.12955147C115.891079913 150.31271396 116.156894038 150.491959292 116.426077387 150.668045653C116.693820675 150.843189998 116.964897236 151.015209081 117.237986977 151.184848984C117.510012041 151.353827523 117.784034619 151.520445398 118.05875 151.68544C118.33398407 151.850744871 118.60991367 152.014420383 118.885226662 152.177208086C119.162012113 152.340866427 119.438174342 152.503627436 119.712380047 152.666244624C119.989680857 152.830697358 120.264980724 152.995003006 120.536900682 153.159940882C120.813413975 153.327664926 121.086432208 153.496042738 121.354505346 153.665893798C121.628359358 153.839407617 121.897052698 154.014458909 122.159039489 154.191921318C122.428587558 154.374505522 122.691036371 154.559642028 122.944702301 154.748282329C123.206390369 154.942888345 123.458731257 155.141223274 123.699876497 155.344331767C123.949644867 155.55470323 124.187402582 155.770195757 124.411095705 155.991970121C124.642637152 156.221525489 124.859109774 156.457811227 125.05823577 156.702114621C125.263683226 156.954173679 125.450665201 157.214767532 125.61668 157.48531C125.775136309 157.743534854 125.930085756 157.996003465 126.081195174 158.243577341C126.239098501 158.502282187 126.392808739 158.755642267 126.541945735 159.004640591C126.697660968 159.264621907 126.84839062 159.519848198 126.99370198 159.771438375C127.145122763 160.033606327 127.290660065 160.291825985 127.42982427 160.547363408C127.574233255 160.812531449 127.711779716 161.074811269 127.841916565 161.335617531C127.976561379 161.60545817 128.10327435 161.873721394 128.221449546 162.141974031C128.34226391 162.416217466 128.454154897 162.690449835 128.556475067 162.966345302C128.660001367 163.245492975 128.753729882 163.526343185 128.83699 163.81063C128.920070093 164.094297778 128.992727268 164.381387192 129.054295223 164.673621037C129.114797756 164.960797827 129.164591543 165.252942543 129.203044278 165.551690081C129.24016304 165.840073702 129.266713972 166.134609973 129.282128316 166.436769474C129.296876446 166.725869509 129.301429842 167.021948055 129.295290353 167.326293141C129.289472727 167.614682874 129.274053981 167.910495117 129.248610274 168.214825754C129.224618005 168.501795835 129.191711901 168.796340166 129.149536597 169.099377584C129.109852727 169.384513589 129.061962435 169.67716889 129.005569685 169.978108918C128.952594679 170.260810156 128.892116586 170.550822341 128.82389 170.84878C128.753441702 171.156450083 128.668853597 171.468493809 128.570882252 171.784207826C128.477170807 172.08619426 128.371214654 172.391538749 128.253675902 172.699625755C128.140674407 172.995819917 128.016967282 173.294548948 127.883142878 173.59526588C127.754124095 173.885184097 127.615701608 174.176950008 127.468402636 174.470073477C127.325748247 174.753954272 127.174768328 175.039108362 127.015941781 175.325090533C126.861295448 175.603545832 126.699210089 175.882786196 126.530127778 176.162400643C126.365020161 176.435442066 126.193240688 176.708840191 126.015200983 176.982212346C125.840604987 177.250296838 125.659988592 177.518356354 125.47374 177.78603C125.290882236 178.048830293 125.102595573 178.311258558 124.909247352 178.572973276C124.718685067 178.830916972 124.523206037 179.088167536 124.323161953 179.344398C124.125671817 179.597357189 123.923732446 179.849322159 123.717682233 180.099978308C123.513499837 180.348362292 123.30528079 180.595461075 123.093354364 180.840968531C122.883018126 181.084633825 122.669029937 181.326731584 122.451711714 181.566962521C122.235660247 181.805793144 122.016317454 182.042778646 121.793999655 182.277624945C121.572331909 182.511784559 121.347706529 182.74381746 121.120437068 182.97343214C120.893167608 183.203046819 120.663254068 183.430243276 120.43101 183.65473C120.19883116 183.879154136 119.964323306 184.100869997 119.727799729 184.319586304C119.490286237 184.539217998 119.250740112 184.755824977 119.009478594 184.969112289C118.766551235 185.183872288 118.521884712 185.39526662 118.275802881 185.60299418C118.028002657 185.812172303 117.77876729 186.017632265 117.528427467 186.219066611C117.275331354 186.422718787 117.02110633 186.622256213 116.766094127 186.817361164C116.507717709 187.015040011 116.248533206 187.208168662 115.98889605 187.396416653C115.725672946 187.587264609 115.461984601 187.773096156 115.198201381 187.953566946C114.929215336 188.137597319 114.660130637 188.316053379 114.39134 188.48857C114.127931797 188.657632539 113.84861181 188.822691229 113.555118286 188.983791207C113.278597005 189.135575042 112.989494053 189.283844777 112.689263222 189.428638162C112.403525716 189.566441801 112.107708771 189.701096623 111.803065638 189.832635171C111.510670923 189.958885108 111.21014548 190.082264318 110.90259739 190.202801575C110.605433275 190.319269042 110.301712731 190.433083226 109.992435346 190.544270083C109.690628176 190.652771358 109.383529361 190.758770692 109.072067796 190.862292206C108.767192904 190.963624486 108.458137834 191.062582637 108.145773787 191.159189282C107.838252593 191.254298149 107.527524229 191.34712786 107.21442 191.4377C106.90411624 191.527462024 106.591687122 191.616233724 106.277864854 191.703582238C105.966231549 191.79032148 105.653224461 191.875657322 105.339560582 191.959165894C105.025823338 192.042693998 104.711428996 192.124393978 104.397095052 192.203841669C104.081926066 192.283500417 103.766817799 192.360894893 103.452493481 192.435597542C103.1349893 192.511055921 102.81828501 192.583767735 102.503126012 192.653292321C102.184025799 192.723686345 101.86650977 192.790812927 101.55135164 192.854214666C101.229628945 192.918937027 100.910363401 192.979777756 100.594378088 193.036250269C100.270899053 193.09406205 99.9508576769 193.147295971 99.635137 193.19543C99.635137 193.19543 99.2678798031 193.27358438 98.6803579199 193.389643021C98.4049820963 193.444040559 98.0812170777 193.506765153 97.7241984936 193.573672302C97.4251827513 193.629709415 97.1028407722 193.688680447 96.7660647762 193.748150491C96.4557860182 193.802941484 96.1332552022 193.858156056 95.8054264603 193.911889995C95.4878911544 193.963936752 95.1653853967 194.014594397 94.8442286172 194.062132516C94.518852631 194.110295169 94.1948613002 194.155255793 93.8788264065 194.195214874C93.5446961245 194.237461915 93.2194594965 194.274118263 92.9108830256 194.303057261C92.5625316251 194.335726442 92.2354121118 194.358560549 91.940698 194.3685C91.6549929768 194.378136001 91.3430856794 194.379341582 91.0122711761 194.373594363C90.7168192835 194.368461497 90.4062863325 194.357782832 90.0858691239 194.342610984C89.7844801265 194.328340126 89.4743459808 194.310093902 89.1597915339 194.288748311C88.8542130109 194.268011825 88.5444628571 194.244350331 88.2345061508 194.21856696C87.925592416 194.192870347 87.6164735164 194.165066112 87.3110746383 194.135949305C86.9979523555 194.106096147 86.6887406289 194.074863188 86.3876700384 194.043107336C86.0696717161 194.009566006 85.7607557391 193.975441331 85.4659071556 193.941743035C85.1396446631 193.904454438 84.8306067984 193.867687915 84.5455477581 193.832811534C84.1990938421 193.790423618 83.8880599786 193.750827703 83.6245718352 193.716479853C83.0527291465 193.641935447 82.704832 193.59211 82.704832 193.59211C82.3852873955 193.5652479 82.0781640882 193.537757279 81.7819775936 193.509601754C81.4620766107 193.479191926 81.154933887 193.448006458 80.8586790562 193.41599951C80.5396912048 193.381536519 80.2333263146 193.346121138 79.9372495691 193.309696144C79.6200262019 193.270669575 79.314613077 193.230484024 79.018138519 193.189069107C78.7036600332 193.145139199 78.3992386971 193.099826082 78.1014472597 193.053045758C77.7903029989 193.004167826 77.4863965296 192.953688159 77.185818591 192.901510945C76.879386297 192.848317476 76.5764134558 192.793359689 76.2727579067 192.736536064C75.9713277987 192.68012889 75.6692249531 192.621883127 75.3623976148 192.56169947C75.0646660088 192.503299926 74.7624858685 192.44307568 74.4521551987 192.380936001C74.1571932859 192.321873716 73.8548681441 192.261081018 73.542001 192.19848C73.2375359834 192.137559551 72.9345664796 192.075045194 72.6335797428 192.010900397C72.3297682528 191.946153601 72.0279769208 191.879745618 71.7287068487 191.811638873C71.4250794743 191.74254051 71.1240473122 191.671693559 70.8261336724 191.599058781C70.5230204161 191.525156277 70.22313549 191.449402995 69.9270300855 191.371757606C69.6248511259 191.292519597 69.3266083251 191.211311065 69.0328874925 191.128088086C68.7319281427 191.042814144 68.4357163879 190.955425242 68.1448824242 190.86587413C67.8450540733 190.773553542 67.550941286 190.678934938 67.2632345537 190.581966544C66.9648395219 190.481395775 66.6733353559 190.378297385 66.3894923965 190.272613611C66.0933391228 190.162346316 65.8055260016 190.049264518 65.5269280132 189.933302612C65.2338138972 189.811298602 64.9509002259 189.686106533 64.679206 189.55765C64.3920351875 189.421876553 64.1040686913 189.283200874 63.8157443507 189.141546474C63.5308091696 189.001557176 63.2455245073 188.858658773 62.9603129439 188.71277744C62.6773883602 188.568065862 62.3945357078 188.420419 62.1121674827 188.269764791C61.8310675083 188.119787243 61.5504476193 187.966829302 61.2707147785 187.810819873C60.9926125103 187.655719828 60.7153869791 187.497603766 60.4394380725 187.336401825C60.1642960341 187.175671236 59.8904231655 187.011872788 59.6182158567 186.844937234C59.346008548 186.678001679 59.0754667991 186.507929018 58.806987 186.33465C58.5388907793 186.161617139 58.2728505884 185.985386944 58.0092611261 185.805890424C57.7451555092 185.626042417 57.4835102281 185.442915279 57.224722305 185.25643961C56.965632384 185.069746329 56.7094064938 184.879696697 56.4564430478 184.68622107C56.2021744558 184.491747221 55.9512020597 184.293811934 55.7039304716 184.092344482C55.4556891835 183.890086956 55.2111777865 183.684269507 54.9708056716 183.474820574C54.7294918415 183.264551075 54.4923497904 183.050621581 54.2597937398 182.832959686C54.0263274894 182.614445885 53.797483208 182.39217041 53.57368 182.16606C53.3485054016 181.938563606 53.1284338261 181.707185124 52.9138921259 181.471849986C52.6981796476 181.235230597 52.4880575636 180.99461125 52.2839597528 180.749916148C52.0789800204 180.5041637 51.8800767363 180.254300198 51.687689428 180.000248857C51.4947366432 179.745450794 51.3083381948 179.486440237 51.1289374976 179.223139726C50.9492443499 178.959409994 50.7765717868 178.691376309 50.611365395 178.418960829C50.4459167651 178.146145913 50.2879562175 177.868936343 50.1379313017 177.587253933C49.987906386 177.305571523 49.8458171022 177.019416274 49.712111 176.72871C49.5809952834 176.443635854 49.4750308022 176.153577527 49.3907988486 175.859168488C49.3056135343 175.561427247 49.2426554812 175.259236253 49.1983885811 174.953250732C49.1543358629 174.648745698 49.1287938639 174.340482768 49.1182775553 174.029107702C49.1079212303 173.722469555 49.1121369045 173.412813242 49.1275961941 173.100755497C49.1427494611 172.794875057 49.168705606 172.486687318 49.202330018 172.176773112C49.2354671994 171.871349681 49.2760520259 171.564249454 49.3210841868 171.256028377C49.3655917011 170.951398224 49.4144435263 170.645673185 49.464743 170.33939C49.5148068252 170.034543047 49.5663047849 169.729143026 49.6163807452 169.423719199C49.6665437379 169.117764543 49.7152797841 168.811785998 49.759717832 168.506315589C49.8044175622 168.199046357 49.8447685259 167.892291265 49.8778486517 167.586591791C49.9113222501 167.277256166 49.9373510156 166.969001422 49.9529073616 166.662388592C49.9686792915 166.351526643 49.9736865317 166.042352431 49.9647738723 165.73545064C49.9557470339 165.424617166 49.9324413589 165.116114709 49.8915788141 164.81055071C49.8505563375 164.503790767 49.7918392908 164.199992329 49.712111 163.89977C49.634780375 163.60857625 49.5529641719 163.318807656 49.4668460098 163.030441113C49.380601698 162.741652158 49.2900428146 162.454269365 49.1953537869 162.168269526C49.1006417206 161.8822001 49.0017974999 161.597514302 48.8990056867 161.314188908C48.7961038049 161.03056013 48.6892458719 160.748294671 48.5786170432 160.467369231C48.4682441098 160.187093599 48.3541177055 159.908151795 48.2364217038 159.63052068C48.118802327 159.353070315 47.9976179992 159.076928934 47.8730522349 158.802073444C47.7488506981 158.528021625 47.6212874703 158.255248189 47.4905444613 157.983730245C47.3598014523 157.712212301 47.225878662 157.44194985 47.088958 157.17292C46.9522537898 156.90431657 46.812561193 156.636942103 46.6700612634 156.370773842C46.5278188475 156.105086578 46.382779236 155.840601163 46.235122503 155.577294961C46.0878010013 155.314586555 45.937874248 155.053052015 45.7855210937 154.792668859C45.6334573048 154.53278025 45.4789763229 154.274038656 45.3222559814 154.016421722C45.1656598859 153.759009024 45.0068279799 153.502719204 44.8459376742 153.247529961C44.6853871813 152.992879698 44.5227869745 152.739325368 44.3583133425 152.486844812C44.1939601158 152.234549087 44.027736206 151.983325565 43.8598175149 151.733152133C43.6918988238 151.482978702 43.5222853515 151.233855361 43.351153 150.98576C43.1798761738 150.73745624 43.0070778977 150.490182356 42.8329345167 150.243916187C42.6589501935 149.997874951 42.4836232214 149.75283959 42.3071294626 149.508788005C42.1302175451 149.2641582 41.9521333054 149.020516838 41.7730538588 148.777841661C41.5938345063 148.534976895 41.4136183913 148.293079825 41.2325830441 148.052128142C41.0513709046 147.810941155 40.8693379323 147.570701403 40.6866621782 147.33138651C40.503748565 147.09176001 40.3201904952 146.853060779 40.1361667162 146.615266357C39.9514219801 146.376540318 39.7662078787 146.13872619 39.5807052686 145.901801247C39.394476621 145.663949005 39.2079572019 145.426992921 39.02133 145.19091C38.8232020063 144.940279219 38.6161180185 144.696091869 38.4010246025 144.457704723C38.1871787207 144.220700214 37.96541605 143.989428822 37.7366667818 143.763258446C37.5098617334 143.53901037 37.2761883458 143.319776969 37.0365532931 143.104942121C36.7991798607 142.892134834 36.5559567618 142.683643468 36.3077652412 142.478869182C36.0619694996 142.276071571 35.8113007931 142.076919626 35.5566150922 141.88083168C35.303617729 141.686043622 35.046656453 141.494279075 34.7865703243 141.304967867C34.5284418068 141.117081562 34.2672352998 140.931611803 34.0037710594 140.748001193C33.7413339699 140.565106414 33.4766567169 140.384056317 33.21055 140.2043C32.9454225342 140.025205005 32.6788761006 139.847394315 32.411712487 139.670323108C32.1445571396 139.49325738 31.8767846505 139.31693109 31.6091967329 139.140799466C31.341311205 138.96447195 31.0736106595 138.788339533 30.8068994877 138.611855626C30.539010811 138.434592559 30.2721202632 138.256974891 30.0070429367 138.07844876C29.7402373841 137.89875869 29.4752687732 137.718148273 29.2129682431 137.536052743C28.9488201153 137.352674564 28.6873777876 137.167790277 28.4294900863 136.980823096C28.1687455473 136.791784723 27.911634826 136.600617053 27.6590352717 136.406723919C27.4034581195 136.210545209 27.1524991147 136.011576402 26.907067 135.8092C26.6581236238 135.603927773 26.4148664121 135.39514966 26.1782436703 135.182221273C25.9383830735 134.966379255 25.705339756 134.746272604 25.480101487 134.521230116C25.252260367 134.293587039 25.032405728 134.060893389 24.8215599805 133.822454423C24.6082461176 133.581224341 24.404153293 133.334113648 24.2103402434 133.080402917C24.0154677853 132.825305369 23.8309877907 132.563535432 23.6579764531 132.294361816C23.4851113591 132.025415729 23.3236955418 131.749078474 23.1748024678 131.464620615C23.0271750977 131.182580864 22.8918584703 130.892557984 22.7698989084 130.593840984C22.6502983323 130.300901876 22.5435431046 129.999601724 22.45062 129.68927C22.3629159316 129.396367812 22.2866431318 129.099565359 22.221411605 128.799492862C22.1565961872 128.501334515 22.102681628 128.199947711 22.0592853478 127.895950691C22.0161906055 127.594065985 21.983468478 127.289607212 21.9607443052 126.983179811C21.9381898905 126.679041538 21.9254846116 126.372963941 21.9222621423 126.065538994C21.9190667164 125.760693992 21.9251956064 125.45452416 21.9402916318 125.147606693C21.9552871437 124.842732766 21.9791307773 124.537121127 22.0114724394 124.231337517C22.0435529407 123.928023128 22.0839947804 123.624539535 22.1324562781 123.321438886C22.1806585193 123.019959746 22.2367948419 122.718859464 22.3005290197 122.418681373C22.3640147213 122.119673567 22.435039151 121.821580774 22.51327 121.52494C22.5911897344 121.229479844 22.6762586477 120.935460139 22.7681483906 120.643411485C22.8600349286 120.351373017 22.9587418205 120.061305462 23.0639407511 119.773739364C23.169246602 119.485880995 23.2810576948 119.20052917 23.3990447126 118.918216051C23.5172883697 118.63528886 23.6417348479 118.355413609 23.7720526767 118.079125942C23.9030878607 117.801317406 24.0400592127 117.527136059 24.1826297579 117.257126438C24.3262891989 116.985054594 24.4756336884 116.717218444 24.6303184715 116.454175097C24.7862716735 116.188974788 24.9476531093 115.928646208 25.1141094731 115.673760283C25.2824508965 115.415987865 25.4559828424 115.163782073 25.6343398653 114.917733451C25.8155056602 114.667810048 26.0016496997 114.424239269 26.192389 114.18764C26.3890543539 113.943689619 26.5950332956 113.711824078 26.8095671081 113.491032743C27.0271689186 113.267083922 27.2535720318 113.05452831 27.4879847122 112.852311292C27.7231690063 112.649428638 27.9664156844 112.456952753 28.2169251667 112.27381857C28.4669419943 112.091044542 28.724193088 111.91757551 28.9878835762 111.752352681C29.2499463082 111.58814977 29.5183691796 111.432091568 29.7923719482 111.28313877C30.0636851472 111.135648071 30.3404692381 110.995123968 30.6219667303 110.860557461C30.9006810255 110.727321428 31.1840159788 110.599925767 31.4712363464 110.47739111C31.7551749969 110.356256507 32.042910781 110.239872461 32.3337333702 110.127292793C32.621666431 110.015831684 32.9126252623 109.908099729 33.2059204989 109.803178673C33.4969332823 109.699074124 33.790246248 109.597736894 34.085186 109.49827C34.3788201047 109.399243601 34.6740666327 109.302070942 34.9702610911 109.205866905C35.2652079265 109.110068097 35.5610947235 109.015229767 35.8572653509 108.920477935C36.1525335834 108.826014801 36.4480839195 108.731637638 36.743266207 108.636480432C37.0391073836 108.54111082 37.3345788668 108.444957678 37.6290261412 108.347149178C37.9242402054 108.249085967 38.2184247194 108.149358765 38.5109200412 108.047088913C38.8049115723 107.944295918 39.0971965854 107.838934194 39.3871052636 107.730111531C39.6785808794 107.620700689 39.9676544031 107.507791394 40.253645098 107.390476892C40.542171461 107.272122248 40.8275600867 107.149283935 41.1091119705 107.021030863C41.3924595652 106.891959805 41.6719213212 106.757404699 41.9467847742 106.616416527C42.223804019 106.474322565 42.4961525476 106.32569423 42.763101 106.16956C43.0381759687 106.00867293 43.3138124833 105.854498748 43.589738266 105.705494085C43.8700792767 105.554105122 44.150718887 105.408052443 44.4313715383 105.265717396C44.7148486832 105.121949887 44.9983391328 104.981975216 45.2815486199 104.844125369C45.5668345401 104.705264835 45.8518353627 104.568560398 46.1362503004 104.432307084C46.4221799388 104.29532813 46.7075174352 104.158805118 46.991957171 104.02100569C47.2766273014 103.883094645 47.5603982163 103.743905115 47.8429635535 103.60170053C48.1251832574 103.45966989 48.4062003313 103.314631566 48.685709536 103.164855352C48.9630435717 103.016244712 49.2388931158 102.862969636 49.51296 102.70334C49.7844199951 102.545228105 50.0541310574 102.380881681 50.3218034487 102.208658391C50.5856241609 102.038913312 50.847464451 101.861516425 51.1070469091 101.674895277C51.3607207201 101.492522022 51.6122383155 101.301339654 51.8613408008 101.09988067C52.1035560335 100.903991678 52.3434878571 100.698386477 52.5808982632 100.481715951C52.8104547514 100.272213234 53.0376538877 100.0523652 53.2622805116 99.8209522463C53.4782497852 99.5984581954 53.69184102 99.3652734949 53.9028629866 99.1203141915C54.1046144132 98.8861163508 54.3040173572 98.6411557374 54.5009047014 98.3844850734C54.6887743047 98.1395703176 54.8743534677 97.8839936226 55.057497 97.616932C55.233765623 97.3598951504 55.3951459417 97.0864244595 55.5432116494 96.798180002C55.68516622 96.5218322992 55.8148825702 96.2319051826 55.9337474713 95.9298615442C56.0475863115 95.6405894616 56.1514719822 95.3402038593 56.2466226743 95.0299897953C56.3378866877 94.7324472357 56.4211147539 94.4258627538 56.4973817978 94.1113702778C56.5709053984 93.8081905821 56.637959767 93.4976615854 56.6995079511 93.1807991973C56.7591521143 92.8737390904 56.8136254961 92.5607313837 56.8638045036 92.2427005909C56.9125915476 91.933491958 56.9573191643 91.619535054 56.9987928305 91.301679569C57.0394642981 90.9899721592 57.077006476 90.6745155253 57.112179 90.356111C57.1467433594 90.0432125688 57.1790192933 89.7274673042 57.2097277101 89.4096356784C57.2400740048 89.0955520106 57.2688895336 88.7794308973 57.2968700009 88.4620062239C57.3246526907 88.1468252391 57.3516120824 87.8303590572 57.3784292319 87.513326111C57.4051829347 87.1970432327 57.4317950676 86.8801962688 57.4589418639 86.5634985647C57.4860678958 86.2470431008 57.5137277734 85.9307366686 57.5425961797 85.615290978C57.5716346283 85.2979872321 57.6018958845 84.9815543976 57.6340666237 84.6667168353C57.6665219725 84.3490939531 57.7009207396 84.0330946942 57.7379679867 83.7194628146C57.7754519401 83.4021338992 57.8156471811 83.0872285046 57.859284 82.775517C57.9037404336 82.4579510273 57.9517689228 82.1437000468 58.0041416806 81.8335786554C58.0575876072 81.5171025742 58.1155576631 81.2049270547 58.1788725106 80.8979178025C58.243831435 80.582936537 58.314416328 80.2733933241 58.3915134561 79.9702230742C58.471042815 79.6574885247 58.5575017814 79.3515353846 58.6518631746 79.0533898678C58.7492962278 78.7455390932 58.8551545624 78.446012524 58.9705091257 78.1559398879C59.0897067481 77.856203427 59.2190438765 77.5665613112 59.3597021001 77.2882599831C59.5052215114 77.0003404828 59.6628580605 76.7245591973 59.8339201275 76.4622963192C60.0090390024 76.1938137681 60.1982277294 75.9394984167 60.40289 75.700831C60.40289 75.700831 60.40289 75.700831 60.40289 75.700831"
       style="fill:none;stroke:#000000;stroke-width:0.265;stroke-linecap:butt;stroke-linejoin:miter;stroke-opacity:1;stroke-miterlimit:4;stroke-dasharray:none" />
    <circle
       id="path891"
       style="fill:#000000;stroke:none"
       cx="84.406807"
       cy="68.820488"
       r="0.75" />
    <circle
       id="path893"
       style="fill:#000000;stroke:none"
       cx="85.847839"
       cy="68.867737"
       r="0.75" />
    <circle
       id="path895"
       style="fill:#000000;stroke:none"
       cx="87.099892"
       cy="68.903175"
       r="0.75" />
    <circle
       id="path897"
       style="fill:#000000;stroke:none"
       cx="88.340126"
       cy="68.985855"
       r="0.75" />
    <circle
       id="path899"
       style="fill:#000000;stroke:none"
       cx="89.74572"
       cy="69.103973"
       r="0.75" />
    <circle
       id="path901"
       style="fill:#000000;stroke:none"
       cx="90.915085"
       cy="69.186653"
       r="0.75" />
    <circle
       id="path903"
       style="fill:#000000;stroke:none"
       cx="92.119888"
       cy="69.363831"
       r="0.75" />
    <circle
       id="path905"
       style="fill:#000000;stroke:none"
       cx="93.206566"
       cy="69.541008"
       r="0.75" />
    <circle
       id="path907"
       style="fill:#000000;stroke:none"
       cx="94.647598"
       cy="69.670937"
       r="0.75" />
    <circle
       id="path909"
       style="fill:#000000;stroke:none"
       cx="95.98233"
       cy="69.918983"
       r="0.75" />
    <circle
       id="path911"
       style="fill:#000000;stroke:none"
       cx="97.163506"
       cy="70.14341"
       r="0.75" />
    <circle
       id="path913"
       style="fill:#000000;stroke:none"
       cx="98.32106"
       cy="70.356018"
       r="0.75" />
    <circle
       id="path915"
       style="fill:#000000;stroke:none"
       cx="99.502235"
       cy="70.639503"
       r="0.75" />
    <circle
       id="path917"
       style="fill:#000000;stroke:none"
       cx="100.68341"
       cy="70.922981"
       r="0.75" />
    <circle
       id="path919"
       style="fill:#000000;stroke:none"
       cx="101.77009"
       cy="71.206467"
       r="0.75" />
    <circle
       id="path921"
       style="fill:#000000;stroke:none"
       cx="103.04576"
       cy="71.678932"
       r="0.75" />
    <circle
       id="path923"
       style="fill:#000000;stroke:none"
       cx="104.08519"
       cy="71.962418"
       r="0.75" />
    <circle
       id="path925"
       style="fill:#000000;stroke:none"
       cx="105.12463"
       cy="72.434891"
       r="0.75" />
    <circle
       id="path927"
       style="fill:#000000;stroke:none"
       cx="106.21131"
       cy="72.907356"
       r="0.75" />
    <circle
       id="path929"
       style="fill:#000000;stroke:none"
       cx="107.39249"
       cy="73.332581"
       r="0.75" />
    <circle
       id="path931"
       style="fill:#000000;stroke:none"
       cx="108.43192"
       cy="73.899544"
       r="0.75" />
    <circle
       id="path933"
       style="fill:#000000;stroke:none"
       cx="109.32961"
       cy="74.419266"
       r="0.75" />
    <circle
       id="path935"
       style="fill:#000000;stroke:none"
       cx="110.22731"
       cy="74.891731"
       r="0.75" />
    <circle
       id="path937"
       style="fill:#000000;stroke:none"
       cx="111.03051"
       cy="75.364204"
       r="0.75" />
    <circle
       id="path939"
       style="fill:#000000;stroke:none"
       cx="111.88095"
       cy="76.025658"
       r="0.75" />
    <circle
       id="path941"
       style="fill:#000000;stroke:none"
       cx="112.7314"
       cy="76.54538"
       r="0.75" />
    <circle
       id="path943"
       style="fill:#000000;stroke:none"
       cx="113.48735"
       cy="77.065094"
       r="0.75" />
    <circle
       id="path945"
       style="fill:#000000;stroke:none"
       cx="114.38504"
       cy="77.584816"
       r="0.75" />
    <circle
       id="path947"
       style="fill:#000000;stroke:none"
       cx="115.18824"
       cy="78.19902"
       r="0.75" />
    <circle
       id="path949"
       style="fill:#000000;stroke:none"
       cx="115.9442"
       cy="78.813232"
       r="0.75" />
    <circle
       id="path951"
       style="fill:#000000;stroke:none"
       cx="116.6529"
       cy="79.474693"
       r="0.75" />
    <circle
       id="path953"
       style="fill:#000000;stroke:none"
       cx="117.4561"
       cy="80.041656"
       r="0.75" />
    <circle
       id="path955"
       style="fill:#000000;stroke:none"
       cx="118.16481"
       cy="80.655869"
       r="0.75" />
    <circle
       id="path957"
       style="fill:#000000;stroke:none"
       cx="118.77902"
       cy="81.364571"
       r="0.75" />
    <circle
       id="path959"
       style="fill:#000000;stroke:none"
       cx="119.53497"
       cy="82.026031"
       r="0.75" />
    <circle
       id="path961"
       style="fill:#000000;stroke:none"
       cx="120.19643"
       cy="82.734741"
       r="0.75" />
    <circle
       id="path963"
       style="fill:#000000;stroke:none"
       cx="120.85789"
       cy="83.490692"
       r="0.75" />
    <circle
       id="path965"
       style="fill:#000000;stroke:none"
       cx="121.4721"
       cy="84.152145"
       r="0.75" />
    <circle
       id="path967"
       style="fill:#000000;stroke:none"
       cx="122.13356"
       cy="85.002594"
       r="0.75" />
    <circle
       id="path969"
       style="fill:#000000;stroke:none"
       cx="122.79502"
       cy="85.711304"
       r="0.75" />
    <circle
       id="path971"
       style="fill:#000000;stroke:none"
       cx="123.36198"
       cy="86.561745"
       r="0.75" />
    <circle
       id="path973"
       style="fill:#000000;stroke:none"
       cx="123.83445"
       cy="87.412193"
       r="0.75" />
    <circle
       id="path975"
       style="fill:#000000;stroke:none"
       cx="124.35417"
       cy="88.357132"
       r="0.75" />
    <circle
       id="path977"
       style="fill:#000000;stroke:none"
       cx="124.87388"
       cy="89.207581"
       r="0.75" />
    <circle
       id="path979"
       style="fill:#000000;stroke:none"
       cx="125.25186"
       cy="89.916283"
       r="0.75" />
    <circle
       id="path981"
       style="fill:#000000;stroke:none"
       cx="125.62984"
       cy="90.672241"
       r="0.75" />
    <circle
       id="path983"
       style="fill:#000000;stroke:none"
       cx="126.10231"
       cy="91.569931"
       r="0.75" />
    <circle
       id="path985"
       style="fill:#000000;stroke:none"
       cx="126.48028"
       cy="92.467628"
       r="0.75" />
    <circle
       id="path987"
       style="fill:#000000;stroke:none"
       cx="126.90551"
       cy="93.412567"
       r="0.75" />
    <circle
       id="path989"
       style="fill:#000000;stroke:none"
       cx="127.28348"
       cy="94.310257"
       r="0.75" />
    <circle
       id="path991"
       style="fill:#000000;stroke:none"
       cx="127.56696"
       cy="95.255203"
       r="0.75" />
    <circle
       id="path993"
       style="fill:#000000;stroke:none"
       cx="127.89769"
       cy="96.200142"
       r="0.75" />
    <circle
       id="path995"
       style="fill:#000000;stroke:none"
       cx="128.08669"
       cy="97.192329"
       r="0.75" />
    <circle
       id="path997"
       style="fill:#000000;stroke:none"
       cx="128.22842"
       cy="98.137268"
       r="0.75" />
    <circle
       id="path999"
       style="fill:#000000;stroke:none"
       cx="128.46466"
       cy="99.223953"
       r="0.75" />
    <circle
       id="path1001"
       style="fill:#000000;stroke:none"
       cx="128.55914"
       cy="100.31063"
       r="0.75" />
    <circle
       id="path1003"
       style="fill:#000000;stroke:none"
       cx="128.6064"
       cy="101.39731"
       r="0.75" />
    <circle
       id="path1005"
       style="fill:#000000;stroke:none"
       cx="128.6064"
       cy="102.3895"
       r="0.75" />
    <circle
       id="path1007"
       style="fill:#000000;stroke:none"
       cx="128.51192"
       cy="103.47618"
       r="0.75" />
    <circle
       id="path1009"
       style="fill:#000000;stroke:none"
       cx="128.4174"
       cy="104.65736"
       r="0.75" />
    <circle
       id="path1011"
       style="fill:#000000;stroke:none"
       cx="128.32292"
       cy="105.64954"
       r="0.75" />
    <circle
       id="path1013"
       style="fill:#000000;stroke:none"
       cx="128.03943"
       cy="106.54724"
       r="0.75" />
    <circle
       id="path1015"
       style="fill:#000000;stroke:none"
       cx="127.89769"
       cy="107.58667"
       r="0.75" />
    <circle
       id="path1017"
       style="fill:#000000;stroke:none"
       cx="127.37798"
       cy="108.57886"
       r="0.75" />
    <circle
       id="path1019"
       style="fill:#000000;stroke:none"
       cx="126.90551"
       cy="109.57105"
       r="0.75" />
    <circle
       id="path1021"
       style="fill:#000000;stroke:none"
       cx="126.29129"
       cy="110.56324"
       r="0.75" />
    <circle
       id="path1023"
       style="fill:#000000;stroke:none"
       cx="125.72433"
       cy="111.41368"
       r="0.75" />
    <circle
       id="path1025"
       style="fill:#000000;stroke:none"
       cx="124.96838"
       cy="112.21688"
       r="0.75" />
    <circle
       id="path1027"
       style="fill:#000000;stroke:none"
       cx="124.25967"
       cy="113.02008"
       r="0.75" />
    <circle
       id="path1029"
       style="fill:#000000;stroke:none"
       cx="123.45647"
       cy="113.77603"
       r="0.75" />
    <circle
       id="path1031"
       style="fill:#000000;stroke:none"
       cx="122.55878"
       cy="114.67373"
       r="0.75" />
    <circle
       id="path1033"
       style="fill:#000000;stroke:none"
       cx="121.80283"
       cy="115.42968"
       r="0.75" />
    <circle
       id="path1035"
       style="fill:#000000;stroke:none"
       cx="120.99963"
       cy="115.9494"
       r="0.75" />
    <circle
       id="path1037"
       style="fill:#000000;stroke:none"
       cx="120.19643"
       cy="116.70535"
       r="0.75" />
    <circle
       id="path1039"
       style="fill:#000000;stroke:none"
       cx="119.29874"
       cy="117.55579"
       r="0.75" />
    <circle
       id="path1041"
       style="fill:#000000;stroke:none"
       cx="118.49554"
       cy="118.07551"
       r="0.75" />
    <circle
       id="path1043"
       style="fill:#000000;stroke:none"
       cx="117.59784"
       cy="118.92596"
       r="0.75" />
    <circle
       id="path1045"
       style="fill:#000000;stroke:none"
       cx="116.7474"
       cy="119.49292"
       r="0.75" />
    <circle
       id="path1047"
       style="fill:#000000;stroke:none"
       cx="115.89695"
       cy="120.34337"
       r="0.75" />
    <circle
       id="path1049"
       style="fill:#000000;stroke:none"
       cx="115.32999"
       cy="121.05207"
       r="0.75" />
    <circle
       id="path1051"
       style="fill:#000000;stroke:none"
       cx="114.47954"
       cy="121.71353"
       r="0.75" />
    <circle
       id="path1053"
       style="fill:#000000;stroke:none"
       cx="113.86533"
       cy="122.51673"
       r="0.75" />
    <circle
       id="path1055"
       style="fill:#000000;stroke:none"
       cx="113.25112"
       cy="123.41443"
       r="0.75" />
    <circle
       id="path1057"
       style="fill:#000000;stroke:none"
       cx="112.87314"
       cy="124.26487"
       r="0.75" />
    <circle
       id="path1059"
       style="fill:#000000;stroke:none"
       cx="112.25893"
       cy="125.02082"
       r="0.75" />
    <circle
       id="path1061"
       style="fill:#000000;stroke:none"
       cx="111.9282"
       cy="125.91852"
       r="0.75" />
    <circle
       id="path1063"
       style="fill:#000000;stroke:none"
       cx="111.73921"
       cy="126.81621"
       r="0.75" />
    <circle
       id="path1065"
       style="fill:#000000;stroke:none"
       cx="111.26674"
       cy="127.7139"
       r="0.75" />
    <circle
       id="path1067"
       style="fill:#000000;stroke:none"
       cx="111.03051"
       cy="128.70609"
       r="0.75" />
    <circle
       id="path1069"
       style="fill:#000000;stroke:none"
       cx="110.69978"
       cy="129.65103"
       r="0.75" />
    <circle
       id="path1071"
       style="fill:#000000;stroke:none"
       cx="110.41629"
       cy="130.73772"
       r="0.75" />
    <circle
       id="path1073"
       style="fill:#000000;stroke:none"
       cx="110.13281"
       cy="131.91888"
       r="0.75" />
    <circle
       id="path1075"
       style="fill:#000000;stroke:none"
       cx="110.03832"
       cy="132.91109"
       r="0.75" />
    <circle
       id="path1077"
       style="fill:#000000;stroke:none"
       cx="109.80208"
       cy="133.95052"
       r="0.75" />
    <circle
       id="path1079"
       style="fill:#000000;stroke:none"
       cx="109.75484"
       cy="134.98994"
       r="0.75" />
    <circle
       id="path1081"
       style="fill:#000000;stroke:none"
       cx="109.70759"
       cy="136.02937"
       r="0.75" />
    <circle
       id="path1083"
       style="fill:#000000;stroke:none"
       cx="109.56585"
       cy="137.11606"
       r="0.75" />
    <circle
       id="path1085"
       style="fill:#000000;stroke:none"
       cx="109.6131"
       cy="138.43898"
       r="0.75" />
    <circle
       id="path1087"
       style="fill:#000000;stroke:none"
       cx="109.66034"
       cy="139.47841"
       r="0.75" />
    <circle
       id="path1089"
       style="fill:#000000;stroke:none"
       cx="109.84933"
       cy="140.65959"
       r="0.75" />
    <circle
       id="path1091"
       style="fill:#000000;stroke:none"
       cx="110.03832"
       cy="141.79352"
       r="0.75" />
    <circle
       id="path1093"
       style="fill:#000000;stroke:none"
       cx="110.41629"
       cy="142.8802"
       r="0.75" />
    <circle
       id="path1095"
       style="fill:#000000;stroke:none"
       cx="110.60528"
       cy="144.01413"
       r="0.75" />
    <circle
       id="path1097"
       style="fill:#000000;stroke:none"
       cx="111.17225"
       cy="144.95908"
       r="0.75" />
    <circle
       id="path1099"
       style="fill:#000000;stroke:none"
       cx="111.50298"
       cy="145.90401"
       r="0.75" />
    <circle
       id="path1101"
       style="fill:#000000;stroke:none"
       cx="112.16443"
       cy="146.75446"
       r="0.75" />
    <circle
       id="path1103"
       style="fill:#000000;stroke:none"
       cx="112.82589"
       cy="147.6994"
       r="0.75" />
    <circle
       id="path1105"
       style="fill:#000000;stroke:none"
       cx="113.5346"
       cy="148.45535"
       r="0.75" />
    <circle
       id="path1107"
       style="fill:#000000;stroke:none"
       cx="114.3378"
       cy="149.16405"
       r="0.75" />
    <circle
       id="path1109"
       style="fill:#000000;stroke:none"
       cx="115.141"
       cy="149.77827"
       r="0.75" />
    <circle
       id="path1111"
       style="fill:#000000;stroke:none"
       cx="116.03869"
       cy="150.39249"
       r="0.75" />
    <circle
       id="path1113"
       style="fill:#000000;stroke:none"
       cx="116.93638"
       cy="151.00668"
       r="0.75" />
    <circle
       id="path1115"
       style="fill:#000000;stroke:none"
       cx="117.92857"
       cy="151.6209"
       r="0.75" />
    <circle
       id="path1117"
       style="fill:#000000;stroke:none"
       cx="118.92076"
       cy="152.23511"
       r="0.75" />
    <circle
       id="path1119"
       style="fill:#000000;stroke:none"
       cx="119.8657"
       cy="152.75484"
       r="0.75" />
    <circle
       id="path1121"
       style="fill:#000000;stroke:none"
       cx="120.81064"
       cy="153.32179"
       r="0.75" />
    <circle
       id="path1123"
       style="fill:#000000;stroke:none"
       cx="121.80283"
       cy="153.936"
       r="0.75" />
    <circle
       id="path1125"
       style="fill:#000000;stroke:none"
       cx="122.65327"
       cy="154.55022"
       r="0.75" />
    <circle
       id="path1127"
       style="fill:#000000;stroke:none"
       cx="123.64546"
       cy="155.21167"
       r="0.75" />
    <circle
       id="path1129"
       style="fill:#000000;stroke:none"
       cx="124.35417"
       cy="155.96764"
       r="0.75" />
    <circle
       id="path1131"
       style="fill:#000000;stroke:none"
       cx="125.11012"
       cy="156.86533"
       r="0.75" />
    <circle
       id="path1133"
       style="fill:#000000;stroke:none"
       cx="125.77158"
       cy="157.66852"
       r="0.75" />
    <circle
       id="path1135"
       style="fill:#000000;stroke:none"
       cx="126.24405"
       cy="158.51897"
       r="0.75" />
    <circle
       id="path1137"
       style="fill:#000000;stroke:none"
       cx="126.76377"
       cy="159.51115"
       r="0.75" />
    <circle
       id="path1139"
       style="fill:#000000;stroke:none"
       cx="127.37798"
       cy="160.59782"
       r="0.75" />
    <circle
       id="path1141"
       style="fill:#000000;stroke:none"
       cx="127.94494"
       cy="161.63727"
       r="0.75" />
    <circle
       id="path1143"
       style="fill:#000000;stroke:none"
       cx="128.46466"
       cy="162.72395"
       r="0.75" />
    <circle
       id="path1145"
       style="fill:#000000;stroke:none"
       cx="128.79539"
       cy="163.85788"
       r="0.75" />
    <circle
       id="path1147"
       style="fill:#000000;stroke:none"
       cx="129.03162"
       cy="164.94456"
       r="0.75" />
    <circle
       id="path1149"
       style="fill:#000000;stroke:none"
       cx="129.26785"
       cy="166.12573"
       r="0.75" />
    <circle
       id="path1151"
       style="fill:#000000;stroke:none"
       cx="129.26785"
       cy="167.30692"
       r="0.75" />
    <circle
       id="path1153"
       style="fill:#000000;stroke:none"
       cx="129.26785"
       cy="168.53532"
       r="0.75" />
    <circle
       id="path1155"
       style="fill:#000000;stroke:none"
       cx="129.07887"
       cy="169.57477"
       r="0.75" />
    <circle
       id="path1157"
       style="fill:#000000;stroke:none"
       cx="128.84264"
       cy="170.66145"
       r="0.75" />
    <circle
       id="path1159"
       style="fill:#000000;stroke:none"
       cx="128.55914"
       cy="171.74812"
       r="0.75" />
    <circle
       id="path1161"
       style="fill:#000000;stroke:none"
       cx="128.22842"
       cy="172.69307"
       r="0.75" />
    <circle
       id="path1163"
       style="fill:#000000;stroke:none"
       cx="127.75595"
       cy="173.87425"
       r="0.75" />
    <circle
       id="path1165"
       style="fill:#000000;stroke:none"
       cx="127.09449"
       cy="174.91368"
       r="0.75" />
    <circle
       id="path1167"
       style="fill:#000000;stroke:none"
       cx="126.52753"
       cy="176.09486"
       r="0.75" />
    <circle
       id="path1169"
       style="fill:#000000;stroke:none"
       cx="125.86607"
       cy="177.13429"
       r="0.75" />
    <circle
       id="path1171"
       style="fill:#000000;stroke:none"
       cx="125.15737"
       cy="178.31548"
       r="0.75" />
    <circle
       id="path1173"
       style="fill:#000000;stroke:none"
       cx="124.35417"
       cy="179.21317"
       r="0.75" />
    <circle
       id="path1175"
       style="fill:#000000;stroke:none"
       cx="123.55097"
       cy="180.25259"
       r="0.75" />
    <circle
       id="path1177"
       style="fill:#000000;stroke:none"
       cx="122.55878"
       cy="181.24478"
       r="0.75" />
    <circle
       id="path1179"
       style="fill:#000000;stroke:none"
       cx="121.70833"
       cy="182.23697"
       r="0.75" />
    <circle
       id="path1181"
       style="fill:#000000;stroke:none"
       cx="120.90513"
       cy="183.08742"
       r="0.75" />
    <circle
       id="path1183"
       style="fill:#000000;stroke:none"
       cx="119.91295"
       cy="184.07961"
       r="0.75" />
    <circle
       id="path1185"
       style="fill:#000000;stroke:none"
       cx="118.87351"
       cy="184.8828"
       r="0.75" />
    <circle
       id="path1187"
       style="fill:#000000;stroke:none"
       cx="117.73958"
       cy="185.87498"
       r="0.75" />
    <circle
       id="path1189"
       style="fill:#000000;stroke:none"
       cx="116.7474"
       cy="186.86719"
       r="0.75" />
    <circle
       id="path1191"
       style="fill:#000000;stroke:none"
       cx="115.61347"
       cy="187.62312"
       r="0.75" />
    <circle
       id="path1193"
       style="fill:#000000;stroke:none"
       cx="114.52679"
       cy="188.37907"
       r="0.75" />
    <circle
       id="path1195"
       style="fill:#000000;stroke:none"
       cx="113.39286"
       cy="189.13504"
       r="0.75" />
    <circle
       id="path1197"
       style="fill:#000000;stroke:none"
       cx="112.11719"
       cy="189.60751"
       r="0.75" />
    <circle
       id="path1199"
       style="fill:#000000;stroke:none"
       cx="110.74702"
       cy="190.26897"
       r="0.75" />
    <circle
       id="path1201"
       style="fill:#000000;stroke:none"
       cx="109.56585"
       cy="190.64694"
       r="0.75" />
    <circle
       id="path1203"
       style="fill:#000000;stroke:none"
       cx="108.0067"
       cy="191.16666"
       r="0.75" />
    <circle
       id="path1205"
       style="fill:#000000;stroke:none"
       cx="107.01451"
       cy="191.45013"
       r="0.75" />
    <circle
       id="path1207"
       style="fill:#000000;stroke:none"
       cx="105.97507"
       cy="191.82812"
       r="0.75" />
    <circle
       id="path1209"
       style="fill:#000000;stroke:none"
       cx="104.93564"
       cy="192.1116"
       r="0.75" />
    <circle
       id="path1211"
       style="fill:#000000;stroke:none"
       cx="103.61272"
       cy="192.44234"
       r="0.75" />
    <circle
       id="path1213"
       style="fill:#000000;stroke:none"
       cx="102.3843"
       cy="192.77306"
       r="0.75" />
    <circle
       id="path1215"
       style="fill:#000000;stroke:none"
       cx="100.91964"
       cy="193.05653"
       r="0.75" />
    <circle
       id="path1217"
       style="fill:#000000;stroke:none"
       cx="99.549477"
       cy="193.34003"
       r="0.75" />
    <circle
       id="path1219"
       style="fill:#000000;stroke:none"
       cx="98.132072"
       cy="193.57626"
       r="0.75" />
    <circle
       id="path1221"
       style="fill:#000000;stroke:none"
       cx="96.620163"
       cy="193.85974"
       r="0.75" />
    <circle
       id="path1223"
       style="fill:#000000;stroke:none"
       cx="95.061012"
       cy="194.00148"
       r="0.75" />
    <circle
       id="path1225"
       style="fill:#000000;stroke:none"
       cx="93.785339"
       cy="194.28496"
       r="0.75" />
    <circle
       id="path1227"
       style="fill:#000000;stroke:none"
       cx="92.509674"
       cy="194.4267"
       r="0.75" />
    <circle
       id="path1229"
       style="fill:#000000;stroke:none"
       cx="91.186752"
       cy="194.4267"
       r="0.75" />
    <circle
       id="path1231"
       style="fill:#000000;stroke:none"
       cx="89.67485"
       cy="194.4267"
       r="0.75" />
    <circle
       id="path1233"
       style="fill:#000000;stroke:none"
       cx="88.068451"
       cy="194.23772"
       r="0.75" />
    <circle
       id="path1235"
       style="fill:#000000;stroke:none"
       cx="86.603798"
       cy="194.23772"
       r="0.75" />
    <circle
       id="path1237"
       style="fill:#000000;stroke:none"
       cx="85.091888"
       cy="194.00148"
       r="0.75" />
    <circle
       id="path1239"
       style="fill:#000000;stroke:none"
       cx="83.579987"
       cy="193.85974"
       r="0.75" />
    <circle
       id="path1241"
       style="fill:#000000;stroke:none"
       cx="81.831848"
       cy="193.57626"
       r="0.75" />
    <circle
       id="path1243"
       style="fill:#000000;stroke:none"
       cx="80.08371"
       cy="193.43452"
       r="0.75" />
    <circle
       id="path1245"
       style="fill:#000000;stroke:none"
       cx="78.666298"
       cy="193.15103"
       r="0.75" />
    <circle
       id="path1247"
       style="fill:#000000;stroke:none"
       cx="77.01265"
       cy="192.86755"
       r="0.75" />
    <circle
       id="path1249"
       style="fill:#000000;stroke:none"
       cx="75.595238"
       cy="192.58408"
       r="0.75" />
    <circle
       id="path1251"
       style="fill:#000000;stroke:none"
       cx="74.130585"
       cy="192.39508"
       r="0.75" />
    <circle
       id="path1253"
       style="fill:#000000;stroke:none"
       cx="72.524185"
       cy="191.92261"
       r="0.75" />
    <circle
       id="path1255"
       style="fill:#000000;stroke:none"
       cx="70.823288"
       cy="191.54463"
       r="0.75" />
    <circle
       id="path1257"
       style="fill:#000000;stroke:none"
       cx="69.453125"
       cy="191.16666"
       r="0.75" />
    <circle
       id="path1259"
       style="fill:#000000;stroke:none"
       cx="68.17746"
       cy="190.88318"
       r="0.75" />
    <circle
       id="path1261"
       style="fill:#000000;stroke:none"
       cx="66.901787"
       cy="190.45795"
       r="0.75" />
    <circle
       id="path1263"
       style="fill:#000000;stroke:none"
       cx="65.86235"
       cy="190.03273"
       r="0.75" />
    <circle
       id="path1265"
       style="fill:#000000;stroke:none"
       cx="64.681175"
       cy="189.60751"
       r="0.75" />
    <circle
       id="path1267"
       style="fill:#000000;stroke:none"
       cx="63.452751"
       cy="188.8988"
       r="0.75" />
    <circle
       id="path1269"
       style="fill:#000000;stroke:none"
       cx="62.224331"
       cy="188.33183"
       r="0.75" />
    <circle
       id="path1271"
       style="fill:#000000;stroke:none"
       cx="61.232143"
       cy="187.76488"
       r="0.75" />
    <circle
       id="path1273"
       style="fill:#000000;stroke:none"
       cx="60.050968"
       cy="187.05617"
       r="0.75" />
    <circle
       id="path1275"
       style="fill:#000000;stroke:none"
       cx="59.06823"
       cy="186.6026"
       r="0.75" />
    <circle
       id="path1277"
       style="fill:#000000;stroke:none"
       cx="58.076042"
       cy="185.74271"
       r="0.75" />
    <circle
       id="path1279"
       style="fill:#000000;stroke:none"
       cx="56.885414"
       cy="185.08124"
       r="0.75" />
    <circle
       id="path1281"
       style="fill:#000000;stroke:none"
       cx="55.69479"
       cy="184.1552"
       r="0.75" />
    <circle
       id="path1283"
       style="fill:#000000;stroke:none"
       cx="54.702602"
       cy="183.16301"
       r="0.75" />
    <circle
       id="path1285"
       style="fill:#000000;stroke:none"
       cx="53.578125"
       cy="182.17084"
       r="0.75" />
    <circle
       id="path1287"
       style="fill:#000000;stroke:none"
       cx="52.585938"
       cy="181.04636"
       r="0.75" />
    <circle
       id="path1289"
       style="fill:#000000;stroke:none"
       cx="51.659897"
       cy="180.05415"
       r="0.75" />
    <circle
       id="path1291"
       style="fill:#000000;stroke:none"
       cx="50.932293"
       cy="178.73125"
       r="0.75" />
    <circle
       id="path1293"
       style="fill:#000000;stroke:none"
       cx="49.940105"
       cy="177.34218"
       r="0.75" />
    <circle
       id="path1295"
       style="fill:#000000;stroke:none"
       cx="49.477081"
       cy="176.2177"
       r="0.75" />
    <circle
       id="path1297"
       style="fill:#000000;stroke:none"
       cx="49.146355"
       cy="175.02708"
       r="0.75" />
    <circle
       id="path1299"
       style="fill:#000000;stroke:none"
       cx="48.947918"
       cy="173.96873"
       r="0.75" />
    <circle
       id="path1301"
       style="fill:#000000;stroke:none"
       cx="48.947918"
       cy="172.57968"
       r="0.75" />
    <circle
       id="path1303"
       style="fill:#000000;stroke:none"
       cx="49.146355"
       cy="170.85989"
       r="0.75" />
    <circle
       id="path1305"
       style="fill:#000000;stroke:none"
       cx="49.477081"
       cy="169.60312"
       r="0.75" />
    <circle
       id="path1307"
       style="fill:#000000;stroke:none"
       cx="49.807812"
       cy="168.1479"
       r="0.75" />
    <circle
       id="path1309"
       style="fill:#000000;stroke:none"
       cx="49.807812"
       cy="166.6927"
       r="0.75" />
    <circle
       id="path1311"
       style="fill:#000000;stroke:none"
       cx="49.807812"
       cy="165.17136"
       r="0.75" />
    <circle
       id="path1313"
       style="fill:#000000;stroke:none"
       cx="49.807812"
       cy="163.91458"
       r="0.75" />
    <circle
       id="path1315"
       style="fill:#000000;stroke:none"
       cx="49.146355"
       cy="162.52551"
       r="0.75" />
    <circle
       id="path1317"
       style="fill:#000000;stroke:none"
       cx="48.749477"
       cy="161.26874"
       r="0.75" />
    <circle
       id="path1319"
       style="fill:#000000;stroke:none"
       cx="48.286457"
       cy="159.68124"
       r="0.75" />
    <circle
       id="path1321"
       style="fill:#000000;stroke:none"
       cx="47.492706"
       cy="158.1599"
       r="0.75" />
    <circle
       id="path1323"
       style="fill:#000000;stroke:none"
       cx="46.963543"
       cy="156.90312"
       r="0.75" />
    <circle
       id="path1325"
       style="fill:#000000;stroke:none"
       cx="46.235935"
       cy="155.5802"
       r="0.75" />
    <circle
       id="path1327"
       style="fill:#000000;stroke:none"
       cx="45.243752"
       cy="154.12498"
       r="0.75" />
    <circle
       id="path1329"
       style="fill:#000000;stroke:none"
       cx="44.648438"
       cy="153.0005"
       r="0.75" />
    <circle
       id="path1331"
       style="fill:#000000;stroke:none"
       cx="43.788544"
       cy="151.80989"
       r="0.75" />
    <circle
       id="path1333"
       style="fill:#000000;stroke:none"
       cx="42.994793"
       cy="150.35468"
       r="0.75" />
    <circle
       id="path1335"
       style="fill:#000000;stroke:none"
       cx="41.738022"
       cy="148.83333"
       r="0.75" />
    <circle
       id="path1337"
       style="fill:#000000;stroke:none"
       cx="40.944271"
       cy="147.70885"
       r="0.75" />
    <circle
       id="path1339"
       style="fill:#000000;stroke:none"
       cx="40.084373"
       cy="146.45209"
       r="0.75" />
    <circle
       id="path1341"
       style="fill:#000000;stroke:none"
       cx="39.158333"
       cy="145.52603"
       r="0.75" />
    <circle
       id="path1343"
       style="fill:#000000;stroke:none"
       cx="38.364582"
       cy="144.40155"
       r="0.75" />
    <circle
       id="path1345"
       style="fill:#000000;stroke:none"
       cx="37.306252"
       cy="143.34322"
       r="0.75" />
    <circle
       id="path1347"
       style="fill:#000000;stroke:none"
       cx="36.31406"
       cy="142.35103"
       r="0.75" />
    <circle
       id="path1349"
       style="fill:#000000;stroke:none"
       cx="35.123436"
       cy="141.55728"
       r="0.75" />
    <circle
       id="path1351"
       style="fill:#000000;stroke:none"
       cx="34.131248"
       cy="140.89583"
       r="0.75" />
    <circle
       id="path1353"
       style="fill:#000000;stroke:none"
       cx="33.139061"
       cy="140.03593"
       r="0.75" />
    <circle
       id="path1355"
       style="fill:#000000;stroke:none"
       cx="32.08073"
       cy="139.44061"
       r="0.75" />
    <circle
       id="path1357"
       style="fill:#000000;stroke:none"
       cx="31.088543"
       cy="138.64687"
       r="0.75" />
    <circle
       id="path1359"
       style="fill:#000000;stroke:none"
       cx="30.1625"
       cy="138.05154"
       r="0.75" />
    <circle
       id="path1361"
       style="fill:#000000;stroke:none"
       cx="28.971874"
       cy="137.2578"
       r="0.75" />
    <circle
       id="path1363"
       style="fill:#000000;stroke:none"
       cx="27.715103"
       cy="136.3979"
       r="0.75" />
    <circle
       id="path1365"
       style="fill:#000000;stroke:none"
       cx="26.590626"
       cy="135.47186"
       r="0.75" />
    <circle
       id="path1367"
       style="fill:#000000;stroke:none"
       cx="25.135418"
       cy="134.28123"
       r="0.75" />
    <circle
       id="path1369"
       style="fill:#000000;stroke:none"
       cx="24.27552"
       cy="133.22292"
       r="0.75" />
    <circle
       id="path1371"
       style="fill:#000000;stroke:none"
       cx="23.415625"
       cy="132.09843"
       r="0.75" />
    <circle
       id="path1373"
       style="fill:#000000;stroke:none"
       cx="22.952604"
       cy="130.97395"
       r="0.75" />
    <circle
       id="path1375"
       style="fill:#000000;stroke:none"
       cx="22.291145"
       cy="129.51874"
       r="0.75" />
    <circle
       id="path1377"
       style="fill:#000000;stroke:none"
       cx="22.092709"
       cy="128.06354"
       r="0.75" />
    <circle
       id="path1379"
       style="fill:#000000;stroke:none"
       cx="21.828125"
       cy="126.40989"
       r="0.75" />
    <circle
       id="path1381"
       style="fill:#000000;stroke:none"
       cx="21.828125"
       cy="124.82239"
       r="0.75" />
    <circle
       id="path1383"
       style="fill:#000000;stroke:none"
       cx="22.026562"
       cy="123.30103"
       r="0.75" />
    <circle
       id="path1385"
       style="fill:#000000;stroke:none"
       cx="22.357292"
       cy="121.5151"
       r="0.75" />
    <circle
       id="path1387"
       style="fill:#000000;stroke:none"
       cx="22.820312"
       cy="120.39062"
       r="0.75" />
    <circle
       id="path1389"
       style="fill:#000000;stroke:none"
       cx="23.481771"
       cy="118.86926"
       r="0.75" />
    <circle
       id="path1391"
       style="fill:#000000;stroke:none"
       cx="24.010937"
       cy="117.54635"
       r="0.75" />
    <circle
       id="path1393"
       style="fill:#000000;stroke:none"
       cx="24.870832"
       cy="116.42187"
       r="0.75" />
    <circle
       id="path1395"
       style="fill:#000000;stroke:none"
       cx="25.466146"
       cy="115.23124"
       r="0.75" />
    <circle
       id="path1397"
       style="fill:#000000;stroke:none"
       cx="26.19375"
       cy="114.10676"
       r="0.75" />
    <circle
       id="path1399"
       style="fill:#000000;stroke:none"
       cx="27.119793"
       cy="113.18072"
       r="0.75" />
    <circle
       id="path1401"
       style="fill:#000000;stroke:none"
       cx="28.376562"
       cy="112.05624"
       r="0.75" />
    <circle
       id="path1403"
       style="fill:#000000;stroke:none"
       cx="29.501041"
       cy="111.39478"
       r="0.75" />
    <circle
       id="path1405"
       style="fill:#000000;stroke:none"
       cx="30.823957"
       cy="110.66718"
       r="0.75" />
    <circle
       id="path1407"
       style="fill:#000000;stroke:none"
       cx="32.21302"
       cy="110.13801"
       r="0.75" />
    <circle
       id="path1409"
       style="fill:#000000;stroke:none"
       cx="33.535938"
       cy="109.5427"
       r="0.75" />
    <circle
       id="path1411"
       style="fill:#000000;stroke:none"
       cx="34.660416"
       cy="109.34426"
       r="0.75" />
    <circle
       id="path1413"
       style="fill:#000000;stroke:none"
       cx="35.983334"
       cy="108.8151"
       r="0.75" />
    <circle
       id="path1415"
       style="fill:#000000;stroke:none"
       cx="37.173958"
       cy="108.48437"
       r="0.75" />
    <circle
       id="path1417"
       style="fill:#000000;stroke:none"
       cx="38.364582"
       cy="107.88905"
       r="0.75" />
    <circle
       id="path1419"
       style="fill:#000000;stroke:none"
       cx="39.621353"
       cy="107.55833"
       r="0.75" />
    <circle
       id="path1421"
       style="fill:#000000;stroke:none"
       cx="40.944271"
       cy="107.0953"
       r="0.75" />
    <circle
       id="path1423"
       style="fill:#000000;stroke:none"
       cx="42.333332"
       cy="106.43385"
       r="0.75" />
    <circle
       id="path1425"
       style="fill:#000000;stroke:none"
       cx="43.523956"
       cy="105.70624"
       r="0.75" />
    <circle
       id="path1427"
       style="fill:#000000;stroke:none"
       cx="44.582291"
       cy="104.97864"
       r="0.75" />
    <circle
       id="path1429"
       style="fill:#000000;stroke:none"
       cx="45.971355"
       cy="104.51562"
       r="0.75" />
    <circle
       id="path1431"
       style="fill:#000000;stroke:none"
       cx="47.029686"
       cy="104.0526"
       r="0.75" />
    <circle
       id="path1433"
       style="fill:#000000;stroke:none"
       cx="48.154167"
       cy="103.45728"
       r="0.75" />
    <circle
       id="path1435"
       style="fill:#000000;stroke:none"
       cx="49.344791"
       cy="102.72968"
       r="0.75" />
    <circle
       id="path1437"
       style="fill:#000000;stroke:none"
       cx="50.733852"
       cy="101.86978"
       r="0.75" />
    <circle
       id="path1439"
       style="fill:#000000;stroke:none"
       cx="51.92448"
       cy="100.94374"
       r="0.75" />
    <circle
       id="path1441"
       style="fill:#000000;stroke:none"
       cx="52.916664"
       cy="100.08385"
       r="0.75" />
    <circle
       id="path1443"
       style="fill:#000000;stroke:none"
       cx="53.908855"
       cy="99.09166"
       r="0.75" />
    <circle
       id="path1445"
       style="fill:#000000;stroke:none"
       cx="54.768749"
       cy="98.165619"
       r="0.75" />
    <circle
       id="path1447"
       style="fill:#000000;stroke:none"
       cx="55.5625"
       cy="96.842705"
       r="0.75" />
    <circle
       id="path1449"
       style="fill:#000000;stroke:none"
       cx="55.959373"
       cy="95.78437"
       r="0.75" />
    <circle
       id="path1451"
       style="fill:#000000;stroke:none"
       cx="56.356251"
       cy="94.329163"
       r="0.75" />
    <circle
       id="path1453"
       style="fill:#000000;stroke:none"
       cx="56.819271"
       cy="93.006241"
       r="0.75" />
    <circle
       id="path1455"
       style="fill:#000000;stroke:none"
       cx="56.951561"
       cy="91.88176"
       r="0.75" />
    <circle
       id="path1457"
       style="fill:#000000;stroke:none"
       cx="57.083855"
       cy="90.558846"
       r="0.75" />
    <circle
       id="path1459"
       style="fill:#000000;stroke:none"
       cx="57.083855"
       cy="89.235931"
       r="0.75" />
    <circle
       id="path1461"
       style="fill:#000000;stroke:none"
       cx="57.216145"
       cy="87.979156"
       r="0.75" />
    <circle
       id="path1463"
       style="fill:#000000;stroke:none"
       cx="57.216145"
       cy="86.523949"
       r="0.75" />
    <circle
       id="path1465"
       style="fill:#000000;stroke:none"
       cx="57.613022"
       cy="85.201035"
       r="0.75" />
    <circle
       id="path1467"
       style="fill:#000000;stroke:none"
       cx="57.745312"
       cy="84.1427"
       r="0.75" />
    <circle
       id="path1469"
       style="fill:#000000;stroke:none"
       cx="57.877605"
       cy="83.018219"
       r="0.75" />
    <circle
       id="path1471"
       style="fill:#000000;stroke:none"
       cx="57.943748"
       cy="82.092178"
       r="0.75" />
    <circle
       id="path1473"
       style="fill:#000000;stroke:none"
       cx="57.943748"
       cy="80.967705"
       r="0.75" />
    <circle
       id="path1475"
       style="fill:#000000;stroke:none"
       cx="58.472916"
       cy="79.644783"
       r="0.75" />
    <circle
       id="path1477"
       style="fill:#000000;stroke:none"
       cx="58.935936"
       cy="78.586449"
       r="0.75" />
    <circle
       id="path1479"
       style="fill:#000000;stroke:none"
       cx="59.398956"
       cy="77.329681"
       r="0.75" />
    <circle
       id="path1485"
       style="fill:#000000;stroke:none"
       cx="60.402889"
       cy="75.700829"
       r="0.75" />
    <circle
       id="path1487"
       style="fill:#000000;stroke:none"
       cx="60.402912"
       cy="75.700829"
       r="0.75" />
    <circle
       id="path1491"
       style="fill:#000000;stroke:none"
       cx="61.184895"
       cy="74.617699"
       r="0.75" />
    <circle
       id="path1493"
       style="fill:#000000;stroke:none"
       cx="62.243229"
       cy="73.823952"
       r="0.75" />
    <circle
       id="path1495"
       style="fill:#000000;stroke:none"
       cx="63.103127"
       cy="72.897911"
       r="0.75" />
    <circle
       id="path1497"
       style="fill:#000000;stroke:none"
       cx="64.227608"
       cy="72.104156"
       r="0.75" />
    <circle
       id="path1499"
       style="fill:#000000;stroke:none"
       cx="65.352081"
       cy="71.508842"
       r="0.75" />
    <circle
       id="path1501"
       style="fill:#000000;stroke:none"
       cx="66.741142"
       cy="70.979683"
       r="0.75" />
    <circle
       id="path1503"
       style="fill:#000000;stroke:none"
       cx="67.997917"
       cy="70.516663"
       r="0.75" />
    <circle
       id="path1505"
       style="fill:#000000;stroke:none"
       cx="69.188538"
       cy="70.318222"
       r="0.75" />
    <circle
       id="path1507"
       style="fill:#000000;stroke:none"
       cx="70.511459"
       cy="69.987495"
       r="0.75" />
    <circle
       id="path1509"
       style="fill:#000000;stroke:none"
       cx="71.966667"
       cy="69.855202"
       r="0.75" />
    <circle
       id="path1511"
       style="fill:#000000;stroke:none"
       cx="73.223434"
       cy="69.524467"
       r="0.75" />
    <circle
       id="path1513"
       style="fill:#000000;stroke:none"
       cx="74.546356"
       cy="69.524467"
       r="0.75" />
    <circle
       id="path1515"
       style="fill:#000000;stroke:none"
       cx="75.86927"
       cy="69.127594"
       r="0.75" />
    <circle
       id="path1517"
       style="fill:#000000;stroke:none"
       cx="77.126038"
       cy="68.995308"
       r="0.75" />
    <circle
       id="path1519"
       style="fill:#000000;stroke:none"
       cx="78.448959"
       cy="68.730721"
       r="0.75" />
    <circle
       id="path1521"
       style="fill:#000000;stroke:none"
       cx="79.63958"
       cy="68.664574"
       r="0.75" />
    <circle
       id="path1523"
       style="fill:#000000;stroke:none"
       cx="80.896355"
       cy="68.796867"
       r="0.75" />
    <circle
       id="path1525"
       style="fill:#000000;stroke:none"
       cx="82.153122"
       cy="68.796867"
       r="0.75" />
    <circle
       id="path1527"
       style="fill:#000000;stroke:none"
       cx="83.277603"
       cy="68.796867"
       r="0.75" />
  </g>
</svg>
